<svg id="Layer_1" data-name="Layer 1" xmlns="http://www.w3.org/2000/svg" xmlns:xlink="http://www.w3.org/1999/xlink" viewBox="0 0 325 325"><defs><style>.cls-1{fill:url(#New_Gradient_Swatch_3);}.cls-2,.cls-4{fill:lime;}.cls-2{stroke:#082e0d;}.cls-2,.cls-3{stroke-linejoin:round;stroke-width:0.52px;}.cls-3{stroke:#00ff80;stroke-linecap:round;}</style><radialGradient id="New_Gradient_Swatch_3" cx="160.19" cy="165.63" r="113.3" gradientUnits="userSpaceOnUse"><stop offset="0" stop-color="#47fff9"/><stop offset="0.16" stop-color="#40ead7"/><stop offset="0.51" stop-color="#2db581"/><stop offset="1" stop-color="#160"/></radialGradient></defs><polygon class="cls-1" points="168.39 44.37 264.92 105.52 260.45 229.54 163.21 286.89 55.45 218.68 58.43 103.89 168.39 44.37"/><polygon class="cls-2" points="171.71 113.37 214.05 137.52 213.03 193.81 172.54 214.6 151.47 215.84 118.27 198.76 115.24 139.22 160.97 111.03 171.71 113.37"/><polygon class="cls-3" points="177.09 111.73 177.09 127.44 190.69 135.29 163.49 151 136.28 135.29 149.88 127.44 149.88 111.73 109.07 135.29 163.49 166.71 217.9 135.29 177.09 111.73"/><polygon class="cls-3" points="163.49 166.71 163.49 229.54 204.3 205.98 190.69 198.13 177.09 205.98 177.09 174.56 204.3 158.86 204.3 174.56 217.9 182.42 217.9 135.29 163.49 166.71"/><polygon class="cls-3" points="109.07 135.29 109.07 182.42 122.67 174.56 122.67 158.86 149.88 174.56 149.88 205.98 136.28 198.13 122.67 205.98 163.49 229.54 163.49 166.71 109.07 135.29"/><polygon class="cls-3" points="163.49 33.19 163.49 137.91 186.16 124.82 186.16 72.46 254.18 111.73 254.18 190.27 208.83 164.09 186.16 177.18 276.85 229.54 276.85 98.64 163.49 33.19"/><polygon class="cls-3" points="186.16 177.18 186.16 203.36 231.5 229.54 163.49 268.82 95.47 229.54 140.81 203.36 140.81 177.18 50.12 229.54 163.49 295 276.85 229.54 186.16 177.18"/><polygon class="cls-3" points="50.12 98.64 50.12 229.54 140.81 177.18 118.14 164.09 72.79 190.27 72.79 111.73 140.81 72.46 140.81 124.82 163.49 137.91 163.49 33.19 50.12 98.64"/><path class="cls-4" d="M181.63,148.51a4.36,4.36,0,0,1,2,1.52,6.47,6.47,0,0,1,1,2.31,8.63,8.63,0,0,1,.24,2.54,13.58,13.58,0,0,1-.39,2.53,18.71,18.71,0,0,1-1.94,4.72,44.49,44.49,0,0,1-2.74,4.24l-1.44,2c-.47.67-1,1.36-1.37,2a4,4,0,0,0-.68,1.76,2.66,2.66,0,0,0,.48,1.54,8.11,8.11,0,0,0,1.37,1.57c.56.52,1.17,1,1.79,1.52a28.89,28.89,0,0,0,3.91,2.56l-1.94,3.18a32.49,32.49,0,0,1-4.1-3.27c-.64-.61-1.24-1.22-1.83-1.88a11,11,0,0,1-1.66-2.34,5.35,5.35,0,0,1-.56-3.22,6.36,6.36,0,0,1,1.3-2.74c.56-.73,1.1-1.33,1.64-2l1.63-1.88a43.63,43.63,0,0,0,3-3.83,17.41,17.41,0,0,0,2.24-4.24,9.76,9.76,0,0,0,.58-4.72,6.13,6.13,0,0,0-.78-2.27A4.27,4.27,0,0,0,181.63,148.51Z"/><path class="cls-4" d="M180.73,202.24a8.77,8.77,0,0,0-1.27-2.83,28.43,28.43,0,0,0-2.11-2.75c-.77-.92-1.58-1.86-2.3-2.91a11.8,11.8,0,0,1-1.72-3.46,14.36,14.36,0,0,1-.48-3.73c0-1.22,0-2.43,0-3.65a57.82,57.82,0,0,1,.64-7.21,57.65,57.65,0,0,0,.11,7.2c.09,1.19.22,2.38.39,3.56a13.83,13.83,0,0,0,.78,3.34c.84,2,2.53,3.65,4.25,5.33a30.59,30.59,0,0,1,2.58,2.72,11.57,11.57,0,0,1,2,3.55Z"/><path class="cls-4" d="M180,129.32a1.88,1.88,0,0,0,.71.48,5,5,0,0,0,1.08.34,4.87,4.87,0,0,0,2.31-.17,7.41,7.41,0,0,0,4.17-2.73,6.12,6.12,0,0,0,1-2.36,9.29,9.29,0,0,0,.1-2.69,25.82,25.82,0,0,0-1.26-5.42A25.56,25.56,0,0,1,190,122.1a10.35,10.35,0,0,1,.22,2.9,7.38,7.38,0,0,1-.84,2.91,8,8,0,0,1-2,2.34,11.14,11.14,0,0,1-2.65,1.53,7,7,0,0,1-3.2.58,7.54,7.54,0,0,1-1.64-.31,4.59,4.59,0,0,1-1.71-.92Z"/><path class="cls-4" d="M124.91,166.24a7.7,7.7,0,0,1-2.54-1.19,4.26,4.26,0,0,1-1-1.15,3.78,3.78,0,0,1-.51-1.44,6.94,6.94,0,0,1,.24-2.62c.1-.39.19-.81.32-1.21s.27-.78.42-1.15a32.55,32.55,0,0,0,1.72-4.38,3.88,3.88,0,0,0,0-2.24,2.74,2.74,0,0,0-.59-1,4.62,4.62,0,0,0-.92-.73,4.29,4.29,0,0,1,1,.65,3.06,3.06,0,0,1,.73,1,4.45,4.45,0,0,1,.26,2.42,33.35,33.35,0,0,1-1.31,4.59,10.13,10.13,0,0,0-.29,1.11,5.82,5.82,0,0,0-.14,1.12,5.57,5.57,0,0,0,.19,2.09,2,2,0,0,0,1.09,1.19,5.64,5.64,0,0,0,1.89.44Z"/><path class="cls-4" d="M154.73,180.92a4.47,4.47,0,0,0-1.77,2.34,12.63,12.63,0,0,0-.6,2.92c-.19,2-.38,4-.4,6a22.31,22.31,0,0,0,.64,5.84,14,14,0,0,1,.3,1.61,4.92,4.92,0,0,1-.16,1.91,3.84,3.84,0,0,1-1.16,1.77,3.34,3.34,0,0,1-1,.59,2.9,2.9,0,0,1-1.28.14l.37-2.42a.59.59,0,0,0,.52-.11,1.59,1.59,0,0,0,.56-.68,1.91,1.91,0,0,0,.14-.49,2.86,2.86,0,0,0,0-.6,10.31,10.31,0,0,0-.12-1.39,24.23,24.23,0,0,1,0-6.25c.23-2.05.63-4,1-6a12.93,12.93,0,0,1,.92-3A4.61,4.61,0,0,1,154.73,180.92Z"/><path class="cls-4" d="M200.27,155.54a5.7,5.7,0,0,1-1.14-4.51,4.93,4.93,0,0,1,1-2.28,3.61,3.61,0,0,1,1-.86,3.25,3.25,0,0,1,1.33-.39,6.89,6.89,0,0,1,2.53.39,10.08,10.08,0,0,1,2.32,1,6.87,6.87,0,0,1,3.13,4.3,9.81,9.81,0,0,1-.24,5.32,13.76,13.76,0,0,1-2.62,4.55,33.11,33.11,0,0,1-3.51,3.5l-.88.77a5.17,5.17,0,0,0-.62.64,1.05,1.05,0,0,0-.26.43c0,.08.06,0,.07-.07l-4.71.22a4.44,4.44,0,0,1,.6-2.3,6.11,6.11,0,0,1,1.16-1.41,11,11,0,0,1,1.13-.88l1-.66c1.25-.85,1.06-2.46,2.09-3.42s3.28-1.25,3.83-2.42a7.23,7.23,0,0,0,.68-3.82,4.81,4.81,0,0,0-1.83-3.29,8.44,8.44,0,0,0-1.82-1.09,5.78,5.78,0,0,0-2-.59,2.33,2.33,0,0,0-1.74.67,4.25,4.25,0,0,0-1.09,1.82A5.42,5.42,0,0,0,200.27,155.54Z"/><path class="cls-4" d="M140.94,175a1.41,1.41,0,0,0-.35.42.89.89,0,0,1-.05.1v0a3,3,0,0,0,0-.5,12.39,12.39,0,0,0-.06-1.33,25.41,25.41,0,0,0-.45-2.82l0,.13c-.32-1.22-.53-2.35-.85-3.36a5.94,5.94,0,0,0-1.37-2.5,6.7,6.7,0,0,0-2.59-1.51c-1-.37-2.18-.63-3.36-1a12.29,12.29,0,0,1-3.45-1.51,5.53,5.53,0,0,1-2.37-3,3.8,3.8,0,0,1-.05-2,3,3,0,0,1,1-1.63,2.34,2.34,0,0,1,1.81-.43,1.87,1.87,0,0,1,1.43,1,1.77,1.77,0,0,0-1.45-.8,2,2,0,0,0-1.5.54,2.78,2.78,0,0,0-.44,3,4.45,4.45,0,0,0,2.22,2.18,10.89,10.89,0,0,0,3.17,1c1.13.18,2.33.3,3.57.58a9.09,9.09,0,0,1,3.7,1.62,8.73,8.73,0,0,1,2.48,3.36c.55,1.2.91,2.37,1.32,3.4v0l0,.11a30.54,30.54,0,0,1,.65,3.19,15.24,15.24,0,0,1,.16,1.72,6.1,6.1,0,0,1,0,1,3.3,3.3,0,0,1-.14.7l-.08.23a1.68,1.68,0,0,1-.13.28,2.5,2.5,0,0,1-.58.71Z"/><path class="cls-4" d="M146.52,173.93s0,.14.09.13.06-.09,0-.22a3.11,3.11,0,0,0-.54-1l-.23-.29-.29-.36a7.68,7.68,0,0,1-.55-.81,4,4,0,0,1-.64-2.12,2.41,2.41,0,0,1,.39-1.21,2.36,2.36,0,0,1,.85-.77,10.77,10.77,0,0,1,1.6-.61,1.81,1.81,0,0,0,1.07-.84,1.89,1.89,0,0,0,.15-1.5,2.13,2.13,0,0,1,.29,1.65,2.17,2.17,0,0,1-.38.85,3.17,3.17,0,0,1-.67.65,12,12,0,0,0-1.24.93.66.66,0,0,0-.19.76,2.34,2.34,0,0,0,.62.8,5.53,5.53,0,0,0,.52.41l.28.2.37.26a6.37,6.37,0,0,1,1.47,1.5,3.72,3.72,0,0,1,.55,1.3,3.5,3.5,0,0,1-.1,1.72Z"/><path class="cls-4" d="M168,136.23a3.68,3.68,0,0,0,1.42-1,12.84,12.84,0,0,0,1.34-1.79,18.26,18.26,0,0,0,2.55-6.61c.14-.79.21-1.59.28-2.44a13,13,0,0,1,.41-2.53,3.84,3.84,0,0,1,1.42-2.1,3.61,3.61,0,0,0-1,2.19,12.5,12.5,0,0,0,.06,2.44c.09.82.17,1.69.18,2.55a20.75,20.75,0,0,1-.14,2.61,20.32,20.32,0,0,1-1.3,5.14,14.65,14.65,0,0,1-1.22,2.49,7.58,7.58,0,0,1-2.24,2.33Z"/><path class="cls-4" d="M179.58,174.61a21.73,21.73,0,0,1,4.13-5.65,13.84,13.84,0,0,1,2.91-2c1-.54,2-1,2.89-1.49a10.84,10.84,0,0,0,2.48-1.72,5.91,5.91,0,0,0,.92-1.13,1.33,1.33,0,0,0,.27-1.08,1.22,1.22,0,0,0-.37-.46,2.49,2.49,0,0,0-.6-.37,2.19,2.19,0,0,0-1.4-.16,1.58,1.58,0,0,0-1.09.91,1.48,1.48,0,0,0,.09,1.49,1.85,1.85,0,0,1,.85-2.84,2.72,2.72,0,0,1,1.78-.06,3.43,3.43,0,0,1,.84.36,2.19,2.19,0,0,1,.73.7,1.78,1.78,0,0,1,.2,1.09,3.32,3.32,0,0,1-.26.94,7.36,7.36,0,0,1-.91,1.53,12,12,0,0,1-2.53,2.37c-1.81,1.33-3.63,2.4-4.78,3.88a18.45,18.45,0,0,0-2.76,5.27Z"/><path class="cls-4" d="M132.91,124.14a6.26,6.26,0,0,0,.36,5,6.57,6.57,0,0,0,.67,1,6.38,6.38,0,0,0,.86.78,3.27,3.27,0,0,0,.46.35l.5.3a4.3,4.3,0,0,0,1,.46,2.85,2.85,0,0,0,.86.14,2.09,2.09,0,0,0,.71-.14,13.35,13.35,0,0,0,1.77-1,9.78,9.78,0,0,1,1.57-.74,6,6,0,0,1,2.58-.32,6.31,6.31,0,0,1,2.68,1,10.69,10.69,0,0,1,1.72,1.43L143,136.7a2,2,0,0,1-.17-.51c0-.09.11-.09.24-.15s.11-.16-.11-.18a3.52,3.52,0,0,0-1,.11,13,13,0,0,1-3.45.42,6.55,6.55,0,0,1-2-.43,7.25,7.25,0,0,1-1.62-.94,8.29,8.29,0,0,1-1.2-1.16l-.5-.61a6.37,6.37,0,0,1-.45-.66,8.85,8.85,0,0,1-.75-1.39,8.46,8.46,0,0,1-.44-1.52A7.13,7.13,0,0,1,132.91,124.14Z"/><path class="cls-4" d="M142.27,143.25a6.28,6.28,0,0,0,2.13,1.84,2.12,2.12,0,0,0,1.17.22c.38-.06.88-.19,1.35-.3a15.07,15.07,0,0,1,6.39-.48,10.7,10.7,0,0,1,3.38,1.2l.39.23.2.12.16.09.43.18a1.9,1.9,0,0,0,.75.1,2,2,0,0,0,1.1-.49,4.59,4.59,0,0,0,.56-.53l.26-.33a.86.86,0,0,0,.1-.16.25.25,0,0,0,0-.07s0,0,0,0,0,0,0,0l0,0,5.14,4.87-.1.09-.07.06-.13.1-.23.18-.46.31a10.53,10.53,0,0,1-.93.52,9.94,9.94,0,0,1-2.06.77,8.1,8.1,0,0,1-2.32.24,7,7,0,0,1-2.32-.49,7.22,7.22,0,0,1-1.9-1.12,6.13,6.13,0,0,1-.75-.68l-.13-.14-.09-.1a1.92,1.92,0,0,0-.18-.22,6.67,6.67,0,0,0-1.84-1.41,12.29,12.29,0,0,0-5.2-1.18c-.5,0-1-.05-1.57-.14a3.11,3.11,0,0,1-1.55-.76A6.68,6.68,0,0,1,142.27,143.25Z"/><path class="cls-4" d="M187.24,139a6,6,0,0,1,.39,1.5,3.49,3.49,0,0,1-.13,1.57,2.21,2.21,0,0,1-1,1.23,3.71,3.71,0,0,1-1.55.43,5.15,5.15,0,0,1-1.62-.12c-.52-.11-1-.24-1.51-.31a5.79,5.79,0,0,0-2.84.21c-.22.07-.44.17-.66.26s-.44.21-.65.31-.42.25-.63.38l-.36.2-.4.2a5.25,5.25,0,0,1-3.62.2,9.16,9.16,0,0,1-3-1.67,12.25,12.25,0,0,1-1.25-1.13,14.47,14.47,0,0,1-1.13-1.29l2-1.33a9.56,9.56,0,0,0,4,3.67,3.45,3.45,0,0,0,2.45.08,1.88,1.88,0,0,0,.3-.12l.34-.14c.25-.11.5-.23.76-.33l.79-.26c.27-.07.53-.15.81-.2a6.93,6.93,0,0,1,3.31.18,10.8,10.8,0,0,0,2.93.8,3.48,3.48,0,0,0,1.43-.29,1.92,1.92,0,0,0,1-1,3.26,3.26,0,0,0,.22-1.49A6,6,0,0,0,187.24,139Z"/></svg>