<?xml version="1.0" encoding="utf-8"?>
<!-- Generator: Adobe Illustrator 22.0.1, SVG Export Plug-In . SVG Version: 6.00 Build 0)  -->
<svg version="1.1" id="Back" xmlns="http://www.w3.org/2000/svg" xmlns:xlink="http://www.w3.org/1999/xlink" x="0px" y="0px"
	 viewBox="0 0 512 512" style="enable-background:new 0 0 512 512;" xml:space="preserve">
<style type="text/css">
	.st0{fill:#00FF00;}
</style>
<path class="st0" d="M256,189.9c38,0,73.1,2.2,101.7,5.9l22.5-27.3v-52.9h-51.4v31.8c-14.7-1.2-30.5-2.1-47-2.5v-29.3h-51.4v29.3
	c-16.6,0.4-32.4,1.3-47,2.5v-31.8h-51.5v52.9l22.5,27.3C182.9,192.1,218,189.9,256,189.9z M378.1,370.8l-19.8-157.8
	c-28.7-3.8-64-6-102.3-6s-73.6,2.2-102.3,6l-19.8,157.8l-2.3,18.5c82.7-9.5,166.2-9.5,248.8,0L378.1,370.8z M289.5,365.3h-67.1
	v-61.5c0-18.5,15-33.5,33.5-33.5c18.5,0,33.5,15,33.5,33.5L289.5,365.3z"/>
<path class="st0" d="M508.9,414.2c-38.4-10.9-81.8-19.4-128.5-24.9c-82.7-9.5-166.2-9.5-248.8,0c-46.7,5.5-90,14-128.4,24.9
	c35.7-19,80.4-34,130.8-43.4c40.3-7.4,81.1-11,122.1-10.9c40.9-0.1,81.8,3.6,122.1,10.9C428.5,380.2,473.2,395.2,508.9,414.2z"/>
</svg>
