<svg id="Back" xmlns="http://www.w3.org/2000/svg" viewBox="0 0 512 512"><defs><style>.cls-1{fill:#fff;}</style></defs><path class="cls-1" d="M256,189.9c38,0,73.11,2.19,101.7,5.92l22.49-27.33v-52.9H328.76v31.8c-14.69-1.22-30.49-2.08-47.05-2.52V115.59H230.29v29.28c-16.56.44-32.36,1.3-47,2.52v-31.8H131.81v52.9l22.49,27.33C182.89,192.09,218,189.9,256,189.9ZM378.09,370.83,358.25,213.06c-28.69-3.77-64-6-102.25-6s-73.56,2.22-102.25,6L133.91,370.83l-2.33,18.46a1089.14,1089.14,0,0,1,248.84,0Zm-88.55-5.57H222.46V303.75a33.54,33.54,0,0,1,67.08,0Z"/><path class="cls-1" d="M508.87,414.23c-38.44-10.94-81.76-19.44-128.45-24.94a1089.14,1089.14,0,0,0-248.84,0c-46.69,5.5-90,14-128.45,24.94,35.7-19,80.38-34,130.78-43.4A670.91,670.91,0,0,1,256,359.92a670.91,670.91,0,0,1,122.09,10.91C428.49,380.2,473.17,395.19,508.87,414.23Z"/></svg>