<svg id="Layer_1" data-name="Layer 1" xmlns="http://www.w3.org/2000/svg" xmlns:xlink="http://www.w3.org/1999/xlink" viewBox="0 0 325 325"><defs><style>.cls-1{fill:#fff;}.cls-2{fill:url(#linear-gradient);}.cls-3{fill:#424242;}.cls-4,.cls-5{fill:none;stroke:#fff;stroke-width:0.5px;}.cls-4{stroke-miterlimit:10;}.cls-5{stroke-linecap:square;stroke-linejoin:bevel;}</style><linearGradient id="linear-gradient" x1="107.37" y1="165.69" x2="217.86" y2="168.31" gradientUnits="userSpaceOnUse"><stop offset="0" stop-color="#47fff9"/><stop offset="0.16" stop-color="#40ead7"/><stop offset="0.51" stop-color="#2db581"/><stop offset="1" stop-color="#160"/></linearGradient></defs><path class="cls-1" d="M117.73,23.61a21.59,21.59,0,0,0,5.24.81,49.27,49.27,0,0,1,5.9,1.18c3.77.83,7.65,1.09,11.38,2.1a.25.25,0,0,0,.19-.46c-3.32-1.73-7.07-2.26-10.73-2.8-4-.6-8.05-1.1-12.09-1.6-.27,0-.34.45-.06.49,2.06.35,4.13.69,6.22.89a20.06,20.06,0,0,1,3.29.47c1,.27,1.9.67,2.84,1a28.79,28.79,0,0,0,6,1.42,28.26,28.26,0,0,0,3.05.23c.45,0,1.28,0,1.14-.66l-.31.31a1,1,0,0,1,.49.33c.22.24.57-.12.35-.35a1.78,1.78,0,0,0-.71-.46c-.19-.08-.34.14-.31.3s-2.53-.07-2.76-.1a26.73,26.73,0,0,1-3-.44,34,34,0,0,1-5.21-1.57,19.92,19.92,0,0,0-5.14-1c-2-.2-3.91-.53-5.85-.85l-.07.49c4,.49,8,1,12,1.58,3.61.54,7.33,1,10.61,2.76l.19-.46c-3.73-1-7.61-1.27-11.38-2.1-1.82-.4-3.62-.91-5.47-1.14a25.82,25.82,0,0,1-5.67-.85c-.3-.12-.43.37-.13.48Z"/><polygon class="cls-2" points="160.4 35.79 190.85 78.49 204.62 195.96 179.22 297.63 160.4 297.63 140.61 297.63 116.17 195.96 129.91 78.49 160.4 35.79"/><path class="cls-3" d="M164,240h0"/><path class="cls-3" d="M174.46,210.05c-.13-.18.52-1.61.38-1.79-.09.15-.15.27-.2.37A5.76,5.76,0,0,0,174.46,210.05Z"/><path class="cls-3" d="M174.45,210s0,0,0,.06S174.45,210,174.45,210Z"/><path class="cls-3" d="M162.15,96.56l.06,0a.22.22,0,0,1,0-.08Z"/><path class="cls-3" d="M123.2,189.12a.64.64,0,0,1,0-.07l0,0Z"/><path class="cls-3" d="M156.68,119.39l0,.06.05,0Z"/><path class="cls-3" d="M117,136.12a.46.46,0,0,0,0,.65v0a4.39,4.39,0,0,0,.27-.53S117.06,136.1,117,136.12Z"/><path class="cls-1" d="M138.64,108.76c.18-.32.31-.84.56-.93a38.49,38.49,0,0,1,9.18-2.65,9.81,9.81,0,0,1-3.51,1.44A38.85,38.85,0,0,0,138.64,108.76Z"/><path class="cls-1" d="M123.34,136.43a6,6,0,0,0,.28-.57s-.18-.18-.2-.16a.45.45,0,0,0,0,.66Z"/><polyline class="cls-4" points="160.39 35.79 160.39 74.91 167.65 79.98 194.08 80.52 166.5 95.2 166.37 95.74 156.99 134.69 172.2 170.85 187.7 171.06 204.62 195.96 166.29 216.26 156.36 247.82 116.17 195.96 127.68 185.19 120.63 153.93 124.75 147.89 166.46 95.2 138.84 81.93 149.99 49.54"/><line class="cls-4" x1="129.56" y1="81.5" x2="138.84" y2="81.93"/><polyline class="cls-5" points="160.38 75.13 154.22 89.35 167.54 79.98"/><line class="cls-4" x1="164.4" y1="94.22" x2="163.53" y2="98.88"/><line class="cls-4" x1="129.34" y1="142.21" x2="157.05" y2="134.44"/><path d="M199.54,165.79c2-5.47,5-9.34,7-14.81.28-.76.54-1.54.78-2.32.78-2.48,5.44-12,6.28-14.47.41-1.2-3.29,4.62-3.42,3.37-.5-4.6-.11-9.21-.12-13.82,0-6.14.12-12.28.21-18.42,0-1.39.16-2.78.24-4.17a5.24,5.24,0,0,0-.8-3.54A7.32,7.32,0,0,1,209,96.2q-3.26-6.95-6.49-13.91l-2.06-4.38a23.76,23.76,0,0,1-1.71-3.65c-1-3.63-3.32-6-5.55-8.45-2.4-2.65-4.83-5.28-7.17-8a7.16,7.16,0,0,1-1.26-2.46c-.43-1.3-.69-2.67-1-4a10.59,10.59,0,0,1,.33-6.92l1.56-3.59c-.11-.13-2,1.5-2.1,1.6a8.69,8.69,0,0,0-3.44,6c-.12,1-.41,1.89-.52,2.86-.17,1.56-.91,1.71-2,1.35-3-1-6-2.11-9.06-3.15-.66-.23-1.36-.34-2-.51l-5.58-.87a22.42,22.42,0,0,1-8.43-4s-.19,0-.2,0a.91.91,0,0,0-.06.4,1.69,1.69,0,0,0,.15.37c.29.67,1.17,1.21.6,2.09-.42.66-1.07.11-1.61,0s-1.11-.41-1.67-.55a3.4,3.4,0,0,1-1.86-1.07,6.53,6.53,0,0,0-2.72-1.79,4.93,4.93,0,0,1-2.61-2.61,9.14,9.14,0,0,0-1.15-1.53c.15,2.72,1.33,4.92,2.21,7.22a40.73,40.73,0,0,1,2.5,8.76l2.19-3.07c-.08-2.51.66-2.34,3.15-2.25,3,.1,8.38,1.62,11.38,2a25.32,25.32,0,0,1,5.44,1.35,15,15,0,0,1,6,4.15q2.16,2.45,4.29,4.94a26.19,26.19,0,0,0,4.81,4.83,3.69,3.69,0,0,1,1,1.13L191,77.74l1.37,11.71c.74,2,1.52,4,2.42,5.87a5.23,5.23,0,0,1,.52,2.78,90.63,90.63,0,0,1-1.87,13.6c-.19.8-.37,1.6-.58,2.39-.57,2.12-1.06,4.27-1.74,6.34-.85,2.58-1.81,5.12-2.84,7.61-.34.84-1.14,1.4-1.58,2.18-1.12,2-1.26,3.31-3.39,5.84-.55.67-2.68,2.71-3.29,3.35l-5.82,6.14c-1.91,2-4.26,3.84-6.11,5.92-.85.94-2.28,2.63-3.41,3.86s-1.83.82-3.07,1.65a1.43,1.43,0,0,1-2.34-.53,18.86,18.86,0,0,1-.79-1.84c-.49-1.27-1-2.52-1.43-3.81-.56-1.72-1-2.64-.38-4.45a14.66,14.66,0,0,0,.14-1.66,5.38,5.38,0,0,0,.11-1.74,8.92,8.92,0,0,0-1.25,2.59c-.46,4,.39,5.49.05,8.57a8.49,8.49,0,0,0,.07,1.67c.07.86.7,3.6.62,4.46-.14,1.46.59,2.51.11,3.45s-8.15,9.74-14.67,17.38c-3.6-3.62-9.14-9.35-9.18-9.42a2.87,2.87,0,0,0-.63-.94,22.72,22.72,0,0,1-3.51-4.47c-2-3.12-3.87-6.43-6.15-9.33a4.23,4.23,0,0,1-.78-1.78,27,27,0,0,0-.93-3.51h0a2.39,2.39,0,0,1,.59-2.18.9.9,0,0,0,.5-.24c.18-.17.34-.36.51-.54l.06-.16a4.79,4.79,0,0,1,4.91-3.23c1.54,0,3.08,0,4.61-.06a15.7,15.7,0,0,1,6,.64,12.91,12.91,0,0,0,2.06.39,2.53,2.53,0,0,1,.68.08,2.19,2.19,0,0,0,2.31-.16,15.67,15.67,0,0,1,1.54-.88c.29-.15.37-.34.23-.55a.59.59,0,0,0-.28-.19c-.33-.11-.67-.18-1-.27a14.64,14.64,0,0,1-4.26-1.69,16.1,16.1,0,0,0-5.64-2c-1-.17-2.07-.38-3.09-.61s-2-.53-3.05-.8c-.89-1.17-1.21-2.4-2.09-3.46a8.7,8.7,0,0,1-1.56-3.73c0-.53-.57-2.29-.42-2.77.42-1.26.64-4,1.1-5.26.88-2.34,4.53-2.37,6.36-3.65a21.43,21.43,0,0,1,6.11-2.83,37.23,37.23,0,0,0,4-1.18,8,8,0,0,1,5.78-.18,9.33,9.33,0,0,0,1.8.39,17.92,17.92,0,0,1,6.25,1.88,5.11,5.11,0,0,0,2.37.47c-.2-.48-.4-1-.59-1.44a13.83,13.83,0,0,1-6.13-3.79,1.15,1.15,0,0,1-.12-.37c-.22,0-.48.05-.67-.06-1.14-.65-2.25-1.33-3.37-2a1.26,1.26,0,0,1-.41-1.38,15.62,15.62,0,0,1,2.4-3.93,1.45,1.45,0,0,1,.88-.55c1.63-.14,3.09-1,4.69-1.29a2,2,0,0,1,1.58-.61,13.1,13.1,0,0,0,3.64-1,5.56,5.56,0,0,0,2.42-2,22.32,22.32,0,0,0,1.81-4.66,17.46,17.46,0,0,1,1.45-4.36c.31-1.58.64-3.16.91-4.75a2.36,2.36,0,0,0-.91-2l-.16,1.22a7.29,7.29,0,0,1-.5,3.5,24,24,0,0,1-1.57,3.46c-.38.54.45,1-.78,2.7-.89,2.07-1.17,2-2.52,3.41a9.93,9.93,0,0,1-3.41,1.54c-1.67.51-2.51.57-4.2,1-.9.21-6.24,1.26-7.12,1.55l-6.13,2a39.9,39.9,0,0,0-6.23,2.15,1.06,1.06,0,0,1-1,.48,13.8,13.8,0,0,0-1.76,1.27c-3.89,3.88-7.54,8.06-11.21,12.22a12.73,12.73,0,0,0-2.61,4.77,90.23,90.23,0,0,1-3.61,10.58,4.54,4.54,0,0,0-.17,3.51,132.62,132.62,0,0,1,3.72,15.29,22.66,22.66,0,0,1,.4,6.47c-.17,2.3-.19,4.62-.43,6.91a7.26,7.26,0,0,0,1,4.61,100.07,100.07,0,0,1,5.56,11.28c.2.48.51.91.71,1.4a7.25,7.25,0,0,1,.3,1.09c.45.2.63.7.9,1.11s.46.6.68.89c.06.08,1.11,1.78,2.43,3.89-.11.31-.21.62-.32.94a16.73,16.73,0,0,1-.89,2.19c-.95,1.87-2,3.7-2.9,5.58a47.8,47.8,0,0,1-7.2,9.93.53.53,0,0,1-.61-.07c-.75-1.2-1.45-2.45-2.2-3.67a.86.86,0,0,0-.55-.36c-.08,0-.29.37-.27.54a20.45,20.45,0,0,0,.35,2.83,7.08,7.08,0,0,1-.23,3.6,16.38,16.38,0,0,1-2.7,6.11,4.46,4.46,0,0,0-.94,3.39c.09,1,.1,1.91.18,2.86.34,4.48.47,9,.51,13.48,0,5.41-8.7-1.27-5.35,2.68.9,1.07,9.39,9.38,10.37,10.35a43.18,43.18,0,0,0,3.39,3.12c1.63,1.28,1.75,2.64,1.87,5.07a42.78,42.78,0,0,0,1.1,5.91c2.28,2.9,5.21,1.93,7.32,5a16.35,16.35,0,0,0,1.84,2.47c1.18.93,4.33,7.33,4.29,9-.09,3.29.6,3.24.66,6.08,0,.67,0,1.34,0,2,0,1.36,0,2.72,0,4.09,0,1.09,0,2.18-.06,3.26l-.14,5.08c6.8,1.95,10.78,1.62,17.93,2.14a95.42,95.42,0,0,0,24.72-1.29c4.36-.81,1.41.56,5.66-.76V300.4a14.06,14.06,0,0,1,.14-4.2c.79-3.13.42-4.07.55-7.37,0-.86.19-3.39.62-4,.92-1.41,7.23-5.51,8.2-6.86A42.62,42.62,0,0,0,196,272a30.06,30.06,0,0,1,1.79-3,12,12,0,0,0,1.72-4.44c.55-3.2,1-6.42,1.51-9.63a.29.29,0,0,0-.14-.21c-.11,0-.28,0-.34.06-1.33,1.71-1.9,3.44-3,5.34-1.58,2.75-4.68,4.24-7.18,5.47a.63.63,0,0,1-.62-.09,1,1,0,0,1-.14-.72,24.46,24.46,0,0,1,2.29-7.25c2.42-6.38,5.81-12.11,8.94-18,1-1.85,2.18-3.54,3.3-5.27s2.41-3.68,3.66-5.48a4.71,4.71,0,0,0,.81-3.42,74.37,74.37,0,0,1-.27-9.79,47,47,0,0,1,1.42-10.47,11,11,0,0,1,.37-1.15,7.15,7.15,0,0,0-.41-5.48c-1.3-2.89-2.43-5.88-3.71-8.78-.68-1.55-1.51-3-2.28-4.52-.14-.27-.26-.25-.33,0,0,.13-.12.27-.1.39.12.93.21,1.88.42,2.79.32,1.31.76,2.57,1.09,3.87.44,1.69.83,3.4,1.23,5.09-.5,1.52-1,3-1.51,4.57-.32,1-.58,2.07-.8,3.12-.17.79-.21,1.62-.35,2.42a7,7,0,0,1-2.69,5,13.89,13.89,0,0,0-3.49,4,2.87,2.87,0,0,1-1.24,1.35c-.21-.48-.45-.94-.62-1.44a4,4,0,0,0-1.34-1.84,11.51,11.51,0,0,1-3.63-5.34,48.48,48.48,0,0,0-3.57-7,.38.38,0,0,1-.15-.49,7.19,7.19,0,0,0-2.82-3.86l-1.18-.8c5.62-9.15,7.54-13.19,7.73-13.53.83-2.27,3-4.61,3.91-6.86a19.27,19.27,0,0,1,1-2.15c.57-1.38,1.4-1.79,1.64-2.44C197.71,169.72,198.7,168.07,199.54,165.79ZM164,240c-1.14,1.29-2.32,2.55-3.53,3.75-.61.61-1.36,1.36-1.8,1.89s-2.57-.21-3-.69a1.64,1.64,0,0,1-.55-1.32c0-1,0-2,0-3A1.89,1.89,0,0,0,154,242a18.65,18.65,0,0,0-.84,2.85c-.79-1.23-2.67-2.71-2.68-4.14s-.44-3,0-4.41a17.1,17.1,0,0,1,2-4.27c.57-.84,1-1.79,1.56-2.67a10.75,10.75,0,0,1,1.25-1.92,27.77,27.77,0,0,1,2.09-1.86,5.32,5.32,0,0,0,.71.42c.25.13,2,3.75,4.63,5.83.21.17.35.21.46.45s.37.22.61.55l.29.5,1,1.89a4.6,4.6,0,0,1,.36,1.62C165.63,237,164.15,239.47,164,240Zm11.4-33.1a6.91,6.91,0,0,1-.79,1.41s0,.17,0,.33c.05-.1.11-.22.2-.37.13.16-.42,1.42-.39,1.73a7.77,7.77,0,0,1,.19-1.36c-.44.85.15.39-.65,1.53-.61.91-.83,0-2-1.54l6.32-6.92A15.08,15.08,0,0,1,175.41,206.89Z"/></svg>