<?xml version="1.0" encoding="utf-8"?>
<!-- Generator: Adobe Illustrator 22.0.1, SVG Export Plug-In . SVG Version: 6.00 Build 0)  -->
<svg version="1.1" id="Back" xmlns="http://www.w3.org/2000/svg" xmlns:xlink="http://www.w3.org/1999/xlink" x="0px" y="0px"
	 viewBox="0 0 512 512" style="enable-background:new 0 0 512 512;" xml:space="preserve">
<style type="text/css">
	.st0{fill:none;stroke:#00FF00;stroke-width:19.81;stroke-miterlimit:10;}
	.st1{fill:#00FF00;}
</style>
<polyline class="st0" points="189.9,392.5 189.9,363.6 249.4,323.1 249.4,258.7 "/>
<line class="st0" x1="298.9" y1="392.5" x2="298.9" y2="258.7"/>
<circle class="st0" cx="189.9" cy="422.2" r="29.7"/>
<polyline class="st0" points="407.9,392.5 407.9,363.6 348.4,324.4 348.4,258.7 "/>
<circle class="st0" cx="407.9" cy="422.2" r="29.7"/>
<circle class="st0" cx="298.9" cy="422.2" r="29.7"/>
<path class="st1" d="M60.5,133.5c-35.2,8.4-53.5,46.7-46.2,79.2c-6.5,4.1-11,12.4-10.9,21.9s4.6,17.8,11.3,21.8
	c-6.9,32.6,12,70.7,47.4,78.5c14,3.1,26.8-0.1,37.9-6.9c4.4,4,11.2,3.6,15.1-0.8c3.2-3.6,3.7-8.8,1.1-12.9c3.4-3.7,6.4-7.7,9.2-11.9
	c4.5-6.9,8.3-14.2,11.5-21.8c6.6-8.3,11.8-17.7,15.2-27.7l0.1,5.8c0,5.5,4.6,10,10.1,9.9c5.5,0,10-4.6,9.9-10.1v-6.3l-0.3-44.1
	c0-5.5-4.6-10-10.1-9.9s-10,4.6-9.9,10.1l0,0v5.8c-3.5-10-8.8-19.3-15.6-27.5c-3.3-7.5-7.2-14.8-11.8-21.6
	c-2.8-4.2-5.9-8.1-9.4-11.8c1-1.7,1.6-3.6,1.6-5.6c0-5.9-4.8-10.7-10.7-10.7c-2.7,0-5.3,1-7.3,2.9C87.4,133.2,74.5,130.2,60.5,133.5
	z M102.7,174.6c2.4,3.9,4.6,8.6,4.7,13.3c0.2,5.6-3,10.1-4.6,15.3c-0.4,1.4-0.7,2.9-0.9,4.3c-1,3.9-19.4,12.8-19.4,12.8l0.2,27.4
	c0,0,18.5,8.6,19.6,12.5c0.2,1.5,0.6,2.9,1,4.3c1.6,5.1,4.9,9.6,4.8,15.3c-0.1,4.6-2.2,9.4-4.5,13.3c-4.6,7.8-12.7,15-21.2,18.1
	c-5.6,2-12.8,2.6-18.7,2.1c-24.5-2.1-37-25.2-34.9-47.9c0.2-2.6,9.4-19.4,9.3-31.1s-9.5-28.4-9.8-31c-2.5-22.6,9.7-45.9,34.2-48.4
	c5.8-0.6,13.1-0.2,18.7,1.8C89.8,159.8,98,166.9,102.7,174.6z"/>
<path class="st1" d="M178.7,245.6c3.7,0,6.7,2.9,6.7,6.6c0,0,0,0,0,0l323.2-2.4l-0.3-37.8l-15.3,0.1l-0.2-26.8h-2.4l-0.1-8.2h2.4
	l-0.2-21.3h5.4l-0.1-10.9l-33.2,0.2l0.1,16.6l10.9-0.1l0,7.6l-10.9,0.1l0.1,21l10.9-0.1l0.1,7.6l-31.6,0.2l-0.1-7.6l10.9-0.1
	l-0.2-21l-10.9,0.1l0-7.6l10.9-0.1l-0.1-16.6l-33.2,0.2l0.1,10.9h5.4l0.2,21.3h2.4l0.1,8.2h-2.4l0.2,26.8l-242.4,1.8
	c0,3.7-2.9,6.7-6.6,6.7s-6.7-2.9-6.7-6.6l0.3,37.8C172,248.7,174.9,245.7,178.7,245.6C178.6,245.6,178.6,245.6,178.7,245.6z"/>
</svg>
