<svg id="Back" xmlns="http://www.w3.org/2000/svg" viewBox="0 0 512 512"><defs><style>.cls-1{fill:none;stroke:#fff;stroke-miterlimit:10;stroke-width:19.81px;}.cls-2{fill:#fff;}</style></defs><circle class="cls-1" cx="449.17" cy="407.86" r="29.72"/><polyline class="cls-1" points="92.55 189.93 121.44 189.93 161.89 249.36 226.35 249.36"/><line class="cls-1" x1="92.55" y1="298.89" x2="226.35" y2="298.89"/><circle class="cls-1" cx="62.83" cy="189.93" r="29.72"/><polyline class="cls-1" points="92.55 407.86 121.44 407.86 160.66 348.42 226.35 348.42"/><circle class="cls-1" cx="62.83" cy="407.86" r="29.72"/><circle class="cls-1" cx="62.83" cy="298.89" r="29.72"/><polyline class="cls-1" points="419.45 189.93 380.65 189.93 340.2 249.36 276.07 249.36"/><line class="cls-1" x1="419.45" y1="298.89" x2="276.07" y2="298.89"/><circle class="cls-1" cx="449.17" cy="189.93" r="29.72"/><polyline class="cls-1" points="419.45 407.86 380.65 407.86 341.43 348.42 276.07 348.42"/><circle class="cls-1" cx="449.17" cy="298.89" r="29.72"/><path class="cls-2" d="M351.49,60.55C343.12,25.32,304.77,7,272.27,14.35c-4.09-6.54-12.37-11-21.93-10.93s-17.77,4.65-21.77,11.26c-32.6-6.91-70.67,12-78.52,47.37-3.12,14,.1,26.84,6.91,37.89a10.7,10.7,0,0,0,13.67,16.2,96.28,96.28,0,0,0,11.91,9.18,134.67,134.67,0,0,0,21.77,11.49A90.85,90.85,0,0,0,232,152l-5.78.05a10,10,0,1,0,.15,20l6.29,0,44.09-.33a10,10,0,1,0-.15-20l-5.78,0a90.69,90.69,0,0,0,27.5-15.6,134.11,134.11,0,0,0,21.59-11.81,97.36,97.36,0,0,0,11.78-9.36,10.64,10.64,0,0,0,5.62,1.58A10.74,10.74,0,0,0,348,105.69a10.62,10.62,0,0,0-2.85-7.15C351.79,87.39,354.82,74.52,351.49,60.55Zm-41.11,42.17c-3.91,2.38-8.6,4.57-13.25,4.71-5.64.17-10.15-3-15.33-4.61a35.11,35.11,0,0,0-4.33-.93c-4-1-12.81-19.37-12.81-19.37l-27.46.21s-8.58,18.5-12.52,19.55a34.67,34.67,0,0,0-4.31,1c-5.16,1.64-9.63,4.92-15.27,4.83-4.65-.07-9.37-2.19-13.31-4.51-7.79-4.58-15-12.66-18.14-21.22-2-5.55-2.58-12.85-2.07-18.7,2.15-24.53,25.23-37,47.89-34.88,2.62.24,19.4,9.43,31.13,9.34s28.36-9.52,31-9.81C304.22,25.87,327.48,38,330,62.5c.59,5.84.16,13.14-1.79,18.73C325.19,89.83,318.1,98,310.38,102.72Z"/><path class="cls-2" d="M239.44,178.66a6.69,6.69,0,0,1-6.65,6.74l2.41,323.18,37.8-.28L272.89,493l26.78-.2,0-2.36,8.19-.06,0,2.36,21.34-.16,0,5.43,10.87-.08-.25-33.19-16.57.12.08,10.87-7.56.05-.08-10.86-21,.15.08,10.87-7.56.06L287,444.32l7.56-.06.09,10.87,21-.16-.08-10.87,7.56-.05.08,10.87,16.57-.13-.25-33.19-10.87.08.05,5.43-21.35.16,0,2.36-8.19.06,0-2.36-26.78.2-1.81-242.41a6.69,6.69,0,1,1-.1-13.38l-37.8.28A6.69,6.69,0,0,1,239.44,178.66Z"/></svg>