<svg id="Back" xmlns="http://www.w3.org/2000/svg" viewBox="0 0 512 512"><defs><style>.cls-1{fill:none;stroke:#fff;stroke-miterlimit:10;stroke-width:19.81px;}.cls-2{fill:#fff;}</style></defs><polyline class="cls-1" points="189.93 392.48 189.93 363.59 249.36 323.14 249.36 258.69"/><line class="cls-1" x1="298.89" y1="392.48" x2="298.89" y2="258.69"/><circle class="cls-1" cx="189.93" cy="422.2" r="29.72"/><polyline class="cls-1" points="407.86 392.48 407.86 363.59 348.42 324.37 348.42 258.69"/><circle class="cls-1" cx="407.86" cy="422.2" r="29.72"/><circle class="cls-1" cx="298.89" cy="422.2" r="29.72"/><path class="cls-2" d="M60.55,133.54C25.32,141.92,7,180.26,14.35,212.76c-6.54,4.09-11,12.38-10.93,21.93s4.65,17.78,11.26,21.77c-6.91,32.6,12,70.68,47.37,78.53,14,3.11,26.84-.11,37.89-6.91a10.7,10.7,0,0,0,16.2-13.68,96.28,96.28,0,0,0,9.18-11.91,134.67,134.67,0,0,0,11.49-21.77A90.73,90.73,0,0,0,152,253l.05,5.78a10,10,0,1,0,20-.15l0-6.29-.33-44.09a10,10,0,1,0-20,.15l0,5.78a90.63,90.63,0,0,0-15.6-27.49,134.21,134.21,0,0,0-11.81-21.6,97.36,97.36,0,0,0-9.36-11.78,10.63,10.63,0,0,0,1.58-5.61,10.71,10.71,0,0,0-18-7.82C87.39,133.24,74.52,130.22,60.55,133.54Zm42.17,41.11c2.38,3.91,4.57,8.6,4.71,13.25.17,5.64-3,10.15-4.61,15.33a35.11,35.11,0,0,0-.93,4.33c-1,3.95-19.37,12.82-19.37,12.82l.21,27.45s18.5,8.59,19.55,12.53a35.1,35.1,0,0,0,1,4.31c1.64,5.15,4.92,9.62,4.83,15.26-.07,4.65-2.19,9.37-4.51,13.31-4.58,7.79-12.66,15-21.22,18.15-5.55,2-12.85,2.57-18.7,2.06-24.53-2.15-37-25.22-34.88-47.88.24-2.63,9.43-19.41,9.34-31.13s-9.52-28.37-9.81-31C25.87,180.82,38,157.56,62.5,155.05c5.84-.6,13.14-.17,18.73,1.78C89.83,159.84,98,166.94,102.72,174.65Z"/><path class="cls-2" d="M178.66,245.59a6.69,6.69,0,0,1,6.74,6.65l323.18-2.41L508.3,212l-15.33.12-.2-26.79-2.36,0-.06-8.19,2.36,0-.16-21.34,5.43,0-.08-10.86-33.19.24.12,16.57,10.87-.08.05,7.56-10.86.08.15,21,10.87-.07.06,7.55-31.65.24-.06-7.56,10.87-.08-.16-21-10.87.08-.05-7.56,10.87-.08-.13-16.56-33.19.24.08,10.87,5.43,0,.16,21.34,2.36,0,.06,8.19-2.36,0,.2,26.79-242.41,1.8a6.69,6.69,0,0,1-13.38.1l.28,37.8A6.69,6.69,0,0,1,178.66,245.59Z"/></svg>