<svg id="Layer_1" data-name="Layer 1" xmlns="http://www.w3.org/2000/svg" viewBox="0 0 37 33"><defs><style>.cls-1,.cls-2{fill:#fff;}.cls-1{fill-rule:evenodd;}</style></defs><path class="cls-1" d="M32.06,8.75H24.31V2.94A1.83,1.83,0,0,0,22.37,1H8.81A5.71,5.71,0,0,0,3,6.81V26.19A5.71,5.71,0,0,0,8.81,32H32.06A1.84,1.84,0,0,0,34,30.06V10.69A1.84,1.84,0,0,0,32.06,8.75ZM6.88,6.81A1.82,1.82,0,0,1,8.81,4.88H20.44V8.75H6.88ZM8.81,28.13H30.12V12.63H6.88V26.19A1.83,1.83,0,0,0,8.81,28.13Z"/><rect class="cls-2" x="24.31" y="18.44" width="3.88" height="3.88"/></svg>