<svg xmlns="http://www.w3.org/2000/svg" viewBox="0 0 512 512"><defs><style>.cls-1{fill:#fff;}</style></defs><g id="Layer_8" data-name="Layer 8"><path class="cls-1" d="M207.72,107C103.43,107,18,187.57,10.13,289.86a156.93,156.93,0,1,1,91.33,182.65,197.21,197.21,0,0,0,106.26,30.88c109.46,0,198.19-88.73,198.19-198.19S317.18,107,207.72,107Z"/><path class="cls-1" d="M.28,165.9s19.65,24.73,10,122.87c0,0,9.57-37.17,19.25-54.12C29.5,234.65,26.08,191.39.28,165.9Z"/><path class="cls-1" d="M14.8,239.73s9.74-41.12,10.35-81.06c0,0,15.67,48.38,7.81,67.14S14.8,239.73,14.8,239.73Z"/><path class="cls-1" d="M33.26,212.74a348.86,348.86,0,0,1,14.83-53.5l-1.82,33.89Z"/><path class="cls-1" d="M16.78,266.3S48.86,221.63,73.07,218a52.9,52.9,0,0,0-26.8-6.11C41.28,212.05,16.78,266.3,16.78,266.3Z"/><polygon class="cls-1" points="22.75 235.67 20.82 248.99 29.08 238.37 27.61 233.03 22.75 235.67"/><path class="cls-1" d="M170.23,127.25c12.7,5.1,82.37,1,93.89,8.07,3.58-.16,7.34.82,10.79-.25C476.24,72.63,499.8,248.54,510.3,316.27q.19-5.5.2-11.07C510.5,137.9,374.87,2.27,207.57,2.27,94.69,2.27,29.12,80.86,20.19,106.07,102.21,47.34,163.4,96.64,170.23,127.25Z"/><path class="cls-1" d="M320.75,155.87s67.54-50.26,100.52,37.69c0,0,72.83,8.25,89,122.71,0,0-7.36-204.38-144-213.8s-102.18,32.85-102.18,32.85Z"/><path class="cls-1" d="M186.35,470.93a99.64,99.64,0,1,1,84.13-153,115.52,115.52,0,1,0-40.62,143A99.28,99.28,0,0,1,186.35,470.93Z"/></g></svg>