<svg id="Layer_1" data-name="Layer 1" xmlns="http://www.w3.org/2000/svg" viewBox="0 0 325 325"><defs><style>.cls-1,.cls-2,.cls-5,.cls-6{stroke:#000;stroke-miterlimit:10;}.cls-1{stroke-width:4.15px;}.cls-2,.cls-7{fill:#5a5a5a;}.cls-2{stroke-width:1.29px;}.cls-3{fill:#464646;}.cls-4{fill:none;}.cls-5{stroke-width:0.32px;}.cls-6{stroke-width:0.65px;}.cls-8{fill:lime;}.cls-9{fill:#00c700;}</style></defs><path class="cls-1" d="M122.25,80.23S79.58,52.05,75.31,48s-14.77-12.63-16.9-9.52,2.13,17.72,3.45,21S81.45,92.55,88.8,101.34,106,122.45,106,122.45l-7.51-2.15s-3.13-1.47-3.63-.49,2.2,6.4,2.2,6.4l-22.9-7.7s-27.2-10.68-28.52-7.23c0,0-.3,4.08,8.3,11.89S96.85,155,96.85,155s2.52.89,1.07,4.83c0,0-3.33-.53-3.33.32a63.19,63.19,0,0,0,2.62,7.91c.31.64,2.16,2.88,2.24,4s-2.16,3.55-3.24,3.7-6.95-1.41-5.86.23,4.4,7,6.32,9.1c0,0-1.77,1.77-.77,3.62s.08.54.08.54-2.16.77-2.7.92A65.32,65.32,0,0,1,84,192.68c-3.39.46-9.69-2-10.38-.36s2.14,7.45,5.68,11.15c3.62,3.16,9.22,5.93,11.51,7.24,0,0,1.75.7.28,6.56s-3,6.84-3,6.84a22.73,22.73,0,0,1-4.88,4.41c-2.54,1.54-3.52,1.28-3.52,1.28s-2.8.26-2.49,1.57,2.47,4.93,7,6.32,7.64,2.08,8.87,2.08,7.37.92,8,1.43a7.13,7.13,0,0,0,1.79.88,4.8,4.8,0,0,1-1.29,3.41,17.63,17.63,0,0,1-5,3.61c-1,.54-2.62,1.15-2.69,1.46a3,3,0,0,0,1.85,2.62A29,29,0,0,0,103.3,255a38.44,38.44,0,0,0,5.73-.27c1-.27,8.09-2.5,8.09-2.5s3.1,2.93,12.6,1a16.42,16.42,0,0,1-2.37,5.16c-1.54,1.92-.62,2.62.23,2.85a30.86,30.86,0,0,0,4.84-.11s1.33,8.9-.29,12.21a22.7,22.7,0,0,1-5.17,7.17c-1.69,1.46-5.7,3.31-5.62,4.08a3.43,3.43,0,0,0,2.31,2.31c.92.08,3.68.11,3.68.11s11.43.9,26.22-6c0,0,8.94-2.24,9.95,1.62s3.74,15.19,5.07,16.38c0,0,1.25.34,1.63-.43s3.62-14.56,4.63-16.88,5.7-1.77,8.4-1.08,17.26,6.25,23,6.48c4.91.19,7.77-.74,9.39-1.54.29-.14.54-.46.17-.6-2.93-1.06-15.66-6.76-11.38-24.35,0,0,4.15.16,6.54,0,.13,0,.17-.43.17-.43l-3.88-7.46s8.75,1.69,13.85-.63c0,0,16.49,6.23,22.32-1.1a.46.46,0,0,0-.18-.68c-1.75-.73-7.41-3.41-8.6-8,0,0,21.11.11,25.89-10.76a.39.39,0,0,0-.32-.57c-2.7-.1-14.26-1.57-14.56-19.83,0,0,14.08-1.05,18.15-18.39a.31.31,0,0,0-.39-.38c-2.78.6-16.44,3-22.79-5.15,0,0,6.66-9.9,6.85-10.12s.18-.58-.19-.6c-1.67-.07-6.56-.46-8.87-2.5a28.1,28.1,0,0,0,4.73-13.54s-4.22-1-4.22-3.66a4.3,4.3,0,0,1,1.7-2c1.15-.62,16.8-10.79,19.34-12.33,0,0,15.95-12,19.81-15.49,3.52-3.24,9.59-8.88,11.92-14.61.22-.55.06-1.49-.8-1.25-5.07,1.42-22.87,6.4-27.61,7.92-5.55,1.77-21.22,6.89-23.29,8.07,0,0,2.49-5.35,3.14-6.8.3-.68.2-1.25-.51-1s-11.44,4-11.44,4S250.68,100,258.63,88.76c7.77-11,19.47-28.4,21.55-49.07.05-.46-.33-1.68-1-1.85a3.6,3.6,0,0,0-2.54.22c-1.87.94-31.31,22.67-36,26.64s-12.27,9.49-12.27,9.49-9.4,4.31-11.64,5.35c0,0,5.82-25,3-36.37-.15-.61-.87-1.22-1.47-.34-2.42,3.55-9,13.32-14.16,21.6-6.41,10.34-13.85,21.09-13.85,21.09a147.44,147.44,0,0,1-10.43-22.91A102.49,102.49,0,0,1,175,40.86c-.38-3.22-3.17-18.27-6-23.29a.55.55,0,0,0-1,.12,67.13,67.13,0,0,0-2.71,10.51c-.72,5-4.9,27.06-5.31,29.31s-1.45,6.26-1.45,6.26-3.86,10.59-4.58,12.43-3.75,6.84-6.52,8.68c0,0-17.29-27.75-21.47-34s-5.19-9.62-7.65-8.5c0,0-1.12.72-1.12,4.4S118.87,73.94,122.25,80.23Z"/><path class="cls-2" d="M122.25,80.23S79.58,52.05,75.31,48s-14.77-12.63-16.9-9.52,2.13,17.72,3.45,21S81.45,92.55,88.8,101.34,106,122.45,106,122.45l-7.51-2.15s-3.13-1.47-3.63-.49,2.2,6.4,2.2,6.4l-22.9-7.7s-27.2-10.68-28.52-7.23c0,0-.3,4.08,8.3,11.89S96.85,155,96.85,155s2.52.89,1.07,4.83c0,0-3.33-.53-3.33.32a63.19,63.19,0,0,0,2.62,7.91c.31.64,2.16,2.88,2.24,4s-2.16,3.55-3.24,3.7-5.16-.85-5.86.23c0,0,4.4,7,6.32,9.1,0,0-1.77,1.77-.77,3.62s.08.54.08.54-2.16.77-2.7.92A65.32,65.32,0,0,1,84,192.68c-3.39.46-9.29-2.18-10.38-.36,0,0,2.14,7.45,5.68,11.15,3.62,3.16,9.22,5.93,11.51,7.24,0,0,1.75.7.28,6.56s-3,6.84-3,6.84a22.73,22.73,0,0,1-4.88,4.41c-2.54,1.54-3.52,1.28-3.52,1.28s-2.8.26-2.49,1.57,2.47,4.93,7,6.32,7.64,2.08,8.87,2.08,7.37.92,8,1.43a7.13,7.13,0,0,0,1.79.88,4.8,4.8,0,0,1-1.29,3.41,17.63,17.63,0,0,1-5,3.61c-1,.54-2.62,1.15-2.69,1.46a3,3,0,0,0,1.85,2.62A29,29,0,0,0,103.3,255a38.44,38.44,0,0,0,5.73-.27c1-.27,8.09-2.5,8.09-2.5s3.1,2.93,12.6,1a16.42,16.42,0,0,1-2.37,5.16c-1.54,1.92-.62,2.62.23,2.85a30.86,30.86,0,0,0,4.84-.11s1.33,8.9-.29,12.21a22.7,22.7,0,0,1-5.17,7.17c-1.69,1.46-5.7,3.31-5.62,4.08a3.43,3.43,0,0,0,2.31,2.31c.92.08,3.68.11,3.68.11s11.43.9,26.22-6c0,0,8.94-2.24,9.95,1.62s3.74,15.19,5.07,16.38c0,0,1.25.34,1.63-.43s3.62-14.56,4.63-16.88,5.7-1.77,8.4-1.08,17.26,6.25,23,6.48,8.72-1.1,10.14-1.94c0,0-16.79-4.72-12-24.55,0,0,4.63.18,6.93,0l-4.1-7.87s8.75,1.69,13.85-.63c0,0,17.18,6.49,22.67-1.57,0,0-7.71-2.76-9.13-8.19,0,0,21.84.11,26.12-11.33,0,0-14.77.84-15.11-19.83,0,0,14.35-1.07,18.26-18.88,0,0-16.2,4.11-23.29-5l7.24-10.7s-6.64,0-9.45-2.52a28.1,28.1,0,0,0,4.73-13.54s-4.22-1-4.22-3.66a4.3,4.3,0,0,1,1.7-2c1.15-.62,16.8-10.79,19.34-12.33,0,0,15.95-12,19.81-15.49s10.32-9.56,12.29-15.64c.07-.2,0-.55-.35-.45-3.49,1-23.38,6.53-28.43,8.15-5.55,1.77-21.22,6.89-23.29,8.07l3.62-7.84-.19-.22-12.24,4.28S250.68,100,258.63,88.76s20-29.18,21.68-50.45a4,4,0,0,0-3.69-.25c-1.87.94-31.31,22.67-36,26.64s-12.27,9.49-12.27,9.49-9.4,4.31-11.64,5.35c0,0,6.34-27.27,2.62-37.79,0-.1-.2-.16-.37.09-1.5,2.19-9.1,13.32-14.84,22.59-6.41,10.34-13.85,21.09-13.85,21.09a147.44,147.44,0,0,1-10.43-22.91A102.49,102.49,0,0,1,175,40.86c-.41-3.47-3.61-20.67-6.71-24.27a72.48,72.48,0,0,0-3.09,11.61c-.72,5-4.9,27.06-5.31,29.31s-1.45,6.26-1.45,6.26-3.86,10.59-4.58,12.43-3.75,6.84-6.52,8.68c0,0-17.29-27.75-21.47-34s-5.19-9.62-7.65-8.5c0,0-1.12.72-1.12,4.4S118.87,73.94,122.25,80.23Z"/><path class="cls-3" d="M264,119c-5.55,1.77-21.21,6.89-23.28,8.07l3.13-8.18-12,4.4S251.33,100,259.27,88.76s20-29.18,21.69-50.45a4,4,0,0,0-3.7-.25c-1.87.94-31.3,22.67-36,26.64S229,74.19,229,74.19l-11.65,5.35s6.46-27.35,2.51-37.64c0,0-8.69,12.2-15.1,22.53s-13.85,21.09-13.85,21.09a147.88,147.88,0,0,1-10.42-22.91,101.83,101.83,0,0,1-4.9-21.75c-.41-3.47-3.61-20.67-6.71-24.27a72.48,72.48,0,0,0-3.09,11.61c-.72,5-4.91,27.06-5.31,29.31S159,63.77,159,63.77s-3.85,10.59-4.57,12.43S150.72,83,148,84.88c0,0-17.29-27.75-21.47-34s-5.2-9.62-7.65-8.5c0,0-1.12.72-1.12,4.4s1.81,27.15,5.19,33.44c0,0-42.68-28.18-46.94-32.28s-14.77-12.63-16.9-9.52,2.13,17.72,3.44,21,19.6,33.12,27,41.91,17.17,21.11,17.17,21.11l-7.51-2.15s-3.14-1.47-3.63-.49,2.2,6.4,2.2,6.4l-22.91-7.7s-27.2-10.68-28.51-7.23c0,0-.31,4.08,8.3,11.89S97.5,155,97.5,155s2.52.89,1.07,4.83c0,0-3.33-.53-3.33.32a64.83,64.83,0,0,0,2.61,7.91c.32.64,2.17,2.88,2.25,4s-2.16,3.55-3.24,3.7S91.69,175,91,176c0,0,4.39,7,6.32,9.1,0,0-1.77,1.77-.77,3.62.32.42.08.54.08.54s-2.16.77-2.7.92a65.32,65.32,0,0,1-9.25,2.47c-3.39.46-9.29-2.18-10.39-.36,0,0,2.14,7.45,5.69,11.15,3.62,3.16,9.21,5.93,11.5,7.24,0,0,1.76.7.29,6.56s-3,6.84-3,6.84a23,23,0,0,1-4.88,4.41c-2.54,1.54-3.52,1.28-3.52,1.28s-2.8.26-2.49,1.57,2.46,4.93,7,6.32,7.63,2.08,8.87,2.08,7.37.92,8,1.43a7.13,7.13,0,0,0,1.78.88,4.76,4.76,0,0,1-1.28,3.41,17.77,17.77,0,0,1-5,3.61c-1,.54-2.62,1.15-2.7,1.46a3,3,0,0,0,1.85,2.62A29.16,29.16,0,0,0,104,255a38.44,38.44,0,0,0,5.73-.27c1-.27,8.09-2.5,8.09-2.5s3.09,2.93,12.59,1a16.29,16.29,0,0,1-2.36,5.16c-1.55,1.92-.62,2.62.23,2.85a30.76,30.76,0,0,0,4.83-.11s1.33,8.9-.29,12.21a22.54,22.54,0,0,1-5.16,7.17c-1.7,1.46-5.7,3.31-5.63,4.08a3.46,3.46,0,0,0,2.32,2.31c.92.08,3.68.11,3.68.11s11.42.9,26.22-6c0,0,8.94-2.24,9.94,1.62s3.75,15.19,5.08,16.38c0,0,1.24.34,1.63-.43s3.62-14.56,4.62-16.88,5.71-1.77,8.4-1.08,17.27,6.25,23,6.48,8.72-1.1,10.14-1.94c0,0-16.79-4.72-12-24.55,0,0,4.63.18,6.92,0l-4.09-7.87s8.75,1.69,13.85-.63c0,0,17.18,6.49,22.66-1.57,0,0-7.7-2.76-9.12-8.19,0,0,21.84.11,26.12-11.33,0,0-14.77.84-15.11-19.83,0,0,14.35-1.07,18.26-18.88,0,0-16.2,4.11-23.29-5l7.23-10.7s-6.63,0-9.44-2.52a28,28,0,0,0,4.72-13.54s-4.21-1-4.21-3.66a4.32,4.32,0,0,1,1.69-2c1.16-.62,16.8-10.79,19.35-12.33,0,0,15.95-12,19.81-15.49s9.46-8.67,11.17-14.94C291.62,112,269.5,117.23,264,119ZM170.16,272.8c-6.88-.06-29.57,5.67-31.44-13S122,244.29,108.81,231.12c-12.46-12.46-5.6-23.05-3.33-33.2-6.14-13.27-5.08-36.26,1.78-48.1,3.24-5.61-17.46-15,2.62-19.66,10-2.35,15.69-5.65,20.64-31.18,18-14.09,40.91,1.93,40.91,1.93,11.21-.93,14.95-2.8,22.43,53.27S177,272.87,170.16,272.8Z"/><path class="cls-3" d="M164.53,174.22s1.95,2.43.33,16.41c-.69,6,5.78,9.66,5.78,12.65,0,8,1.9,56.86.45,67.72,11.13,4.56,29.29-65.43,29.29-70s5.05-39.95-25.26-49.09C172.1,161.36,164.53,174.22,164.53,174.22Z"/><path class="cls-3" d="M144.55,180.07s6.68,17.85,12,18.51c0,0-12.59,3.76-8.62,8.39s-7.27,6.61-6,13.21-6.61-.66-6.61,5.95,9.25,13.22,13.22,25.11c0,0-31.72-11.23-31.72-22.47s13.22-9.91,14.54-13.87-8.6-8.88-9.26-14.68C127.52,202.14,145.78,183.64,144.55,180.07Z"/><path d="M170.38,108.9v51.9c0,6,0,27.29,6.65,34.61a16.17,16.17,0,0,1-.58-12.63c2.52-7.24,6.61-9.75,11.65-7.87A32.21,32.21,0,0,1,196,179s-4.72,2.51-4.41,12c0,0-3.77,4.09-7.55,5.66,0,0-4.72,5.67-4.09,10.39s6.23,15.38-.32,18.57c0,0,9.45,6.3,1.26,18.57,0,0-3.15,3.78-5.66,4.72,0,0,6.61,2.84,4.72,7.56s-9.76,6.29-9.76,16.36-.2,20.86-.75,26.87c3.73,1,3.09-19.39,9.38-19.39s27,12.6,38.92,4.8c0,0-15.63-6.15-12.61-23.9,0,0,4.72-.34,6.92-.65l-3.44-7.22s9.11,1.55,13.2-1.28c0,0,17.25,7,22.66-1.57,0,0-7.22-2.52-8.48-8.19,0,0,21,1.54,25.48-11.33,0,0-14.46.32-14.46-19.83,0,0,16.16-1.8,17.61-18.88,0,0-18,3.26-23.06-5.24,0,0,3.86-5.15,7-10.5,0,0-1-.81-9.44-2.52,0,0,5.28-7.48,4.72-13.54,0,0-7.87-2.51-1.88-6s46.26-27.92,50.76-43c.07-.26,0-.68-.48-.57-5.37,1.41-40.11,10.56-51.42,16.07a50.47,50.47,0,0,0,3-8.06l-12,4.4s53.41-58.64,49.11-85c0,0-25.19,40.92-55.72,65.78,0,0,2.84-6.92-.94-24.23,0,0-9.44,34-15.74,41.54,0,0,3.78,6.61-.63,5.67,0,0,14.17,7.24,23,3.78,0,0-4.09,10.38-13.54,10.07,0,0,3.15,4.09-.94,6.29s-6,6.93-15.11.32a15.85,15.85,0,0,0-2.83-10.07c-3.46-5,4.4-4.09,4.4-4.09s-20.77-10.08-10.7-12.91l2.21-2.52s-5.67-.94-4.73-2.83,8.5-5.67,9.76-17.63.95-26.12,5.35-33L191,84.49s-10.5-15.71-14.15-40c-4.08-27.13-7.92-27.93-7.92-27.93S171.73,87.1,173.31,94s7.24,5.67,9.13,11.33-.95,9.44-3.15,7.87S170.38,108.9,170.38,108.9Z"/><path d="M219.41,42S213,80.49,203.82,99.06c0,0,15.74-19.2,24.55-24.87l-11.09,4.44S224.2,48.11,219.41,42Z"/><path d="M159.47,278.73s-1.58-6.92-6-4.72-12.28,13.85-26.44,13.54c0,0,9.12,1.25,23.6-5C158.4,280,159.47,278.73,159.47,278.73Z"/><path d="M183.1,225.59s-8.6-2.23-13.43-1.7-18,4.52-26.51,3.87c0,0,6.9,18.86,28.23,15.74,4.5-.66,5.59-.39,8.58.39,4.45,1.16,4.73-2.28,5.44-6.76S183.1,225.59,183.1,225.59Z"/><path d="M177.9,178.27s-.72,6.26,2.32,7.87,2.15,5,.54,7c0,0-3.4-4.83-6.44-3.22C174.32,189.9,173.78,179.34,177.9,178.27Z"/><path class="cls-4" d="M123.51,200.28l-10.38-.18s3.22,4.11,4.83,3.4S123.51,200.28,123.51,200.28Z"/><path d="M142.69,183.86s3.9-2.08,5.2,1.29,1.55,10.39,1.55,10.39-3.11-2.6-3.89-4.67S142.69,183.86,142.69,183.86Z"/><path d="M158.4,63.77s-1.62,10.19-.54,13.59-1.08,11.28-2.69,12.71c0,0-7.69-1.26-9.48,2.5,0,0-12.7-30.23-19.86-41.68,0,0,20.4,31.3,21.47,34a25,25,0,0,0,6.41-9.44C155.5,70.08,158.4,63.77,158.4,63.77Z"/><path d="M122.25,80.23s14.76,16.86,18.05,14c2.15,1.79-3.2,8.41-2.48,10.92,0,0-4.11-2-5-3.58s-2.4-1.65-2.94-2.54-12.09-18.4-13.7-19.47S97.39,68.6,94.34,65.2s-9.18-10.76-9.18-10.76,24,16.23,27.42,18.38S122.25,80.23,122.25,80.23Z"/><path d="M144.44,110.28S123.33,90.07,121,86.67s-4.47-6.62-4.65-5,4.83,14.31,5.9,16.64,10.38,17.71,10,23.79A20.75,20.75,0,0,0,144.44,110.28Z"/><path d="M115.64,90.16s.89,18.51,2.5,23c0,0,.3,6.27-2.38,7.35,0,0-14.48-9.72-24.57-23.1,0,0,16.87,11.36,22.37,8.43C115.57,104.73,115.64,90.16,115.64,90.16Z"/><path d="M97.73,119.72s4.83,5.55,11.63,6.8a4.3,4.3,0,0,1,5-3.4s-23.62-18.61-26.3-22.36c0,0,16.05,18.4,16.05,20.19Z"/><path d="M97.47,126.06S81,120.34,74.56,118.37c0,0,22.73,10.2,27.56,12.7Z"/><path d="M96.85,148.57s-37.21-21.83-42.94-25.4c0,0,24.69,20.21,34.35,26.3L96.85,155S95.78,149.82,96.85,148.57Z"/><path class="cls-5" d="M97.84,159.84s-4.11-.89-3.22,1.08,1.44,5.72,2.51,7.15Z"/><path class="cls-6" d="M100.61,175.77s-4.48.16-6,0-4.4-.6-4.4.8c0,0,4.9,7.1,7.59,9.5s7.4,3.39,8.3,4.89c0,0,1.4-5.49-.4-9.89S99.08,183,100.61,175.77Z"/><path class="cls-6" d="M94.24,190s-8.5,3.7-14,2.5-6.39-.7-6.59-.2,2.59,8.9,7.29,12.5a55.53,55.53,0,0,0,9.9,5.89s-1.5-6.89-.6-11.39A32.16,32.16,0,0,1,94.24,190Z"/><path d="M111.43,190.92s-2.1,5.1-6.6,7c0,0,3.5,2.8,17.29,2.3a4.94,4.94,0,0,0-2.5-2.3c-1.6-.5-4.89-2.2-5-4.4S111.43,190.92,111.43,190.92Z"/><path d="M88.14,224.11s-3.5,4.49-8.4,5.69c0,0-3.69-.2-1.9,3.4,0,0,3.2,5.1,12.8,6.3s10.49,1.7,10.49,1.7-4.7-2.3-5.2-3.1-1.39-3.2-2-3.7-3.5-5.8-3.4-7.1S89.84,224.11,88.14,224.11Z"/><path d="M102.53,239.4a4.7,4.7,0,0,1-.9,5.45A16.76,16.76,0,0,1,95,249.14s-3.15,1.55-.85,3.35,11,3.75,14.84,2.85a80.4,80.4,0,0,0,8.09-2.5s2.65,3.1,11.95,1c0,0,.05,2-2.45,5.55,0,0-.9,1.9,1.5,1.9s4.94-.2,4.94-.2-1.54-6.1-1.64-7-.1-5.2-1-7.7-2.5-5.79-2.6-7.59c0,0-.8,4.7-.2,7.49s.5,2.6-1.1,2.1-5.3-4.49-5.4-6.29a7.83,7.83,0,0,0,.1,4.39c.8,1.8-.8,1.4-.8,1.4s-1.9-1.8-1.5-3.59a5.56,5.56,0,0,0-.7,4.59s-6.19-2.7-6.09-8.09C112.13,240.8,105.53,237.4,102.53,239.4Z"/><path class="cls-3" d="M112.53,139.54s29.89,9.75,26.78,28.44c0,0-19.93,5.2,16.21,4.27,0,0,3.42-16.2,3.42-23.68s3.43-11.83,5.3-13.39c0,0-17.13-1.87-23.05-6.54,0,0-6.23-4.37-10-3.12s-16.82,6.54-19.63,7.17S106.3,136.11,112.53,139.54Z"/><path class="cls-3" d="M106.61,149.82s-2.81,12.46,4.36,15.26,13.39,10.28,17.76,10.28c0,0-6.55,3.43-8.73,7.17s-8.1,3.42-7.47,1.56-7.17-7.48-8.1-12.47S99.13,159.16,106.61,149.82Z"/><path class="cls-7" d="M241.3,130.64a54.44,54.44,0,0,1-6.16,9.07S256.9,127,265.25,122.3C265.25,122.3,248.92,126.65,241.3,130.64Z"/><path class="cls-3" d="M119,147.39s16.76,7.57,17.84,20.9c0,0-1.44,3.06-9.19,2.16a11,11,0,0,1-5.23-4.52s4,5.21,10,3.3c0,0,2-2-.53-2,0,0-3.56-.27-4.62-1.92,0,0,6.6,1.52,6.4-.39s-5.6-5.61-7.78-4.68c0,0-2.64-1.92-2.64-4.75s-3.69-7.12-5.27-5.94Z"/><path class="cls-8" d="M134.55,163.29a35.83,35.83,0,0,0-2.71-3.42c-1-1-3.82-4.22-4.74-3.57,0,0-1.59,1.65.46,6.67C127.56,163,132.11,167,134.55,163.29Z"/><path d="M124.72,155.65s4.88-1.65,5.41,2.37c0,0-2-2.77-3-1.72s-.66,6.93,2.7,8.31c0,0-3.89.86-4.42-5.67C125.38,158.94,125.71,156.5,124.72,155.65Z"/><path class="cls-9" d="M131.65,163.87s-.82-2.41,0-2.85,2.07,2.4,2.18,3c0,0,.44-.29.44-1.29,0,0-4.14-5.21-5.62-5.92a8.73,8.73,0,0,0-.36,3.55c.18.63.92.52,1.14,1.07S130.13,163.94,131.65,163.87Z"/><path d="M129,158.8s2.22,1.85,1.81,3.51c0,0-.37.56-.81.34C130,162.65,128.8,159.54,129,158.8Z"/><path class="cls-8" d="M211,156.3s-4.13,1.78-6.71,8c0,0,.37.8,1.05.86s3.81-.5,4.92-2.09a10.14,10.14,0,0,0,1.17-5.6C211.24,156.79,211.55,156,211,156.3Z"/><path class="cls-9" d="M209.52,157.22a4.7,4.7,0,0,1,1.11,1.23c.24.55.24,3.69-.31,4.37a4.86,4.86,0,0,1-3.32,1.72c-1.6.12-2.4-.24-2.46-.55a11.29,11.29,0,0,1,1-2.22A32,32,0,0,1,209.52,157.22Z"/><path d="M208.78,157.84s1.11,4.49-.31,5.29c0,0-.43-1.17-.92-1.36s-.12-1.35-.61-2Z"/><path class="cls-7" d="M144,228.06a51.19,51.19,0,0,1,3.14,5.49l.48-2.62a26.39,26.39,0,0,0,2,4.37l.39-4.37s1,3.55,2.34,4.76c0,0,1.6-1.16,2.33-6.61,0,0-3.66.69-5.07.29S144,228.06,144,228.06Z"/><path class="cls-7" d="M156.77,228.36s-1,.1-.91,1.61.33,2.89.33,3.42.53,1.83,1,.89a16.92,16.92,0,0,0,1.42-4.67c0-.93-.17-1.33-.48-1.33S156.77,228.36,156.77,228.36Z"/><path class="cls-7" d="M160.64,227.66s-1.07,0-.94,1a22,22,0,0,0,.94,3.6c.22.44,1.24,1.38,1.86.26a8.25,8.25,0,0,0,1.07-3.78c-.13-.71-.31-.93-1-1.06A8.5,8.5,0,0,0,160.64,227.66Z"/><path class="cls-7" d="M165.13,227.44a1.24,1.24,0,0,0-.85,1.51,15,15,0,0,0,1.42,3.64,1,1,0,0,0,1.47-.49,17,17,0,0,0,.8-3.6c0-.4.05-.58-.66-.84A7.66,7.66,0,0,0,165.13,227.44Z"/><path class="cls-7" d="M170.46,227.52a1.07,1.07,0,0,0-.89,1.47,24.25,24.25,0,0,0,.85,2.54s.44.71.75.71.67-.49.67-.76.31-1.78.4-2.44-.18-1.47-.67-1.56A3.46,3.46,0,0,0,170.46,227.52Z"/><path class="cls-7" d="M176.8,228.07a1.9,1.9,0,0,0-2.25-.1s-1,3.08,1.09,4.71C175.64,232.68,177.62,230.44,176.8,228.07Z"/><path class="cls-7" d="M180.76,228.21s-1.61.27-1.72,1.16-.52,1.78.05,2.8,1,1.47,1.2,1.25a13.39,13.39,0,0,0,1-3.47C181.49,228.66,181.28,228.44,180.76,228.21Z"/><path class="cls-7" d="M152.75,238.25s1-1.66,1.71-1.82c0,0,.45,0,.41.25s-.27,2.41.53,2.26c.16,0,.73.12.85-.35a4.92,4.92,0,0,1,1.39-2.53s.73-.53,1,.28c0,0,.4,1.35.4,1.5a6.08,6.08,0,0,1-1.22,2.32c-.49.28-.85.5-.85.88a1,1,0,0,1-1.1-.72c-.25-.82-1.23-.25-1.23-.91S153,239.35,152.75,238.25Z"/><path class="cls-7" d="M160.68,237s-.8.15-1.11,2a15.14,15.14,0,0,0-.45,3.42,1.22,1.22,0,0,0,1.47.66,2,2,0,0,0,1.6-1.07,7.1,7.1,0,0,0-.18-2.68,9.33,9.33,0,0,1-.71-1.65C161.3,237.4,161.26,236.88,160.68,237Z"/><path class="cls-7" d="M164.73,237.22a2,2,0,0,0-1.2.92c-.27.67-1.07,3.56-.85,4.16s1.16,1,1.6.66.85-.89,1.2-1,.76-.22.67-1S165.66,237.29,164.73,237.22Z"/><path class="cls-7" d="M168.91,237.89s-1,.29-1.16.85-.62,2.21-.62,2.21.49,1.56.31,1.93,1.42.51,1.82.29.85-.11.62-1,.09-3.36-.13-3.77A1.42,1.42,0,0,0,168.91,237.89Z"/><path class="cls-7" d="M174.84,238.14s-1.27-.62-1.74-.18a4.15,4.15,0,0,0-1,2.09,3.26,3.26,0,0,1-.41,1.6c-.23.36.23,1.12.87.4S175.31,239.34,174.84,238.14Z"/><path class="cls-7" d="M177.18,237.48c-.42-.24-.85.62-1,1.2a4,4,0,0,1-.58,1.56c-.35.53-.09,1.07.13.89S177.8,237.84,177.18,237.48Z"/><path class="cls-7" d="M179.43,237a1.32,1.32,0,0,0-.85.93,3.9,3.9,0,0,0,.13,2.27,2.81,2.81,0,0,1,.14,1,6.84,6.84,0,0,0,.58-1.78c0-.66.08-1.73.13-2A.66.66,0,0,0,179.43,237Z"/><path class="cls-3" d="M135.58,133.93a22,22,0,0,0,11.21-16.2c1.87-11.83,16.83-11.83,16.83-11.83l1.24,6.85s-2.49,16.2-.62,22.43-12.46,5.61-11.84,11.21S135.58,133.93,135.58,133.93Z"/><circle class="cls-4" cx="163.03" cy="163.6" r="146.52"/></svg>