<svg id="Layer_1" data-name="Layer 1" xmlns="http://www.w3.org/2000/svg" xmlns:xlink="http://www.w3.org/1999/xlink" viewBox="0 0 325 325"><defs><style>.cls-1{fill:url(#radial-gradient);}.cls-10,.cls-2,.cls-3,.cls-4,.cls-5,.cls-6,.cls-7,.cls-8,.cls-9{fill:lime;}.cls-2{opacity:0;}.cls-3{opacity:0.13;}.cls-4{opacity:0.25;}.cls-5{opacity:0.38;}.cls-6{opacity:0.5;}.cls-7{opacity:0.63;}.cls-8{opacity:0.75;}.cls-9{opacity:0.88;}</style><radialGradient id="radial-gradient" cx="161.88" cy="163.75" r="99.45" gradientUnits="userSpaceOnUse"><stop offset="0.5" stop-color="#47fff9"/><stop offset="0.64" stop-color="#39d6b7"/><stop offset="0.96" stop-color="#157213"/><stop offset="1" stop-color="#160"/></radialGradient></defs><polygon points="161.88 31.86 47.65 97.81 47.65 229.7 161.88 295.65 276.1 229.7 276.1 97.81 161.88 31.86"/><path class="cls-1" d="M161.88,57.43,69.8,110.59V216.91l92.08,53.16L254,216.91V110.59Zm65.83,58.05L161,151.84,96.83,115l65.05-37.55ZM87.16,130.56l55,31.55-4.45,2.42,8.75,16.06,7.27-4v68.68L87.16,206.89ZM172,244.19V179.24l17.69,10.15,9.1-15.86-19.19-11,57-31.06v75.43Z"/><polygon class="cls-2" points="161.88 96.45 103.59 130.1 103.59 197.41 161.88 231.06 220.16 197.41 220.16 130.1 161.88 96.45"/><polygon class="cls-3" points="161.88 97.07 104.12 130.41 104.12 197.1 161.88 230.44 219.63 197.1 219.63 130.41 161.88 97.07"/><polygon class="cls-4" points="161.88 97.68 104.66 130.72 104.66 196.79 161.88 229.82 219.09 196.79 219.09 130.72 161.88 97.68"/><polygon class="cls-5" points="161.88 98.3 105.19 131.03 105.19 196.48 161.88 229.21 218.56 196.48 218.56 131.03 161.88 98.3"/><polygon class="cls-6" points="161.88 98.92 105.73 131.34 105.73 196.17 161.88 228.59 218.02 196.17 218.02 131.34 161.88 98.92"/><polygon class="cls-7" points="161.88 99.54 106.26 131.65 106.26 195.86 161.88 227.97 217.49 195.86 217.49 131.65 161.88 99.54"/><polygon class="cls-8" points="161.88 100.16 106.8 131.95 106.8 195.55 161.88 227.35 216.95 195.55 216.95 131.95 161.88 100.16"/><polygon class="cls-9" points="161.88 100.77 107.33 132.26 107.33 195.24 161.88 226.73 216.42 195.24 216.42 132.26 161.88 100.77"/><polygon class="cls-10" points="161.88 101.39 107.87 132.57 107.87 194.93 161.88 226.12 215.88 194.93 215.88 132.57 161.88 101.39"/><polygon class="cls-10" points="161.88 101.18 107.69 132.47 107.69 195.04 161.88 226.32 216.06 195.04 216.06 132.47 161.88 101.18"/><polygon class="cls-10" points="161.88 100.98 107.51 132.37 107.51 195.14 161.88 226.53 216.24 195.14 216.24 132.37 161.88 100.98"/><polygon class="cls-10" points="161.88 100.77 107.33 132.26 107.33 195.24 161.88 226.74 216.42 195.24 216.42 132.26 161.88 100.77"/><polygon class="cls-10" points="161.88 100.56 107.15 132.16 107.15 195.35 161.88 226.94 216.6 195.35 216.6 132.16 161.88 100.56"/><polygon class="cls-10" points="161.88 100.36 106.97 132.06 106.97 195.45 161.88 227.15 216.78 195.45 216.78 132.06 161.88 100.36"/><polygon class="cls-10" points="161.88 100.15 106.8 131.95 106.8 195.55 161.88 227.35 216.96 195.55 216.96 131.95 161.88 100.15"/><polygon class="cls-10" points="161.88 99.94 106.62 131.85 106.62 195.66 161.88 227.56 217.14 195.66 217.14 131.85 161.88 99.94"/><polygon class="cls-10" points="161.88 99.74 106.44 131.75 106.44 195.76 161.88 227.77 217.31 195.76 217.31 131.75 161.88 99.74"/><path class="cls-10" d="M110.52,156.06a16.58,16.58,0,0,0-2.06-4.77,17.92,17.92,0,0,0-3.54-4.06,18.85,18.85,0,0,0-2.24-1.59,8.24,8.24,0,0,0-2.46-1,3.57,3.57,0,0,0-2.54.34,2.72,2.72,0,0,0-1.47,2.23,3,3,0,0,1,1.13-2.69,4,4,0,0,1,1.39-.78,5.33,5.33,0,0,1,1.59-.24,9.65,9.65,0,0,1,3.08.62,21.23,21.23,0,0,1,2.8,1.26,20.66,20.66,0,0,1,8.6,9.12Z"/><path class="cls-10" d="M108.34,178.32a8.07,8.07,0,0,1-2-1,7.82,7.82,0,0,1-1.49-1.34,9.42,9.42,0,0,1-1.64-2.72,16.4,16.4,0,0,1-.76-2.41c-.17-.73-.32-1.45-.46-2.18q-.39-2.19-.57-4.38c0-.72-.09-1.45-.11-2.18s0-1.41,0-2.08a21.77,21.77,0,0,0-.26-3.79,6.65,6.65,0,0,0-1.38-3.13,6.12,6.12,0,0,0-7-1.37,7.14,7.14,0,0,1,8.33-.19,9.15,9.15,0,0,1,3,3.69,25,25,0,0,1,1.42,4.23c.36,1.37.68,2.6,1.11,3.82a35.84,35.84,0,0,0,1.42,3.57c.27.58.55,1.15.85,1.71.15.29.28.53.42.75a6.23,6.23,0,0,0,.42.6,1.8,1.8,0,0,0,.72.61c.08,0,.12,0,.11-.07a.35.35,0,0,0-.14-.19Z"/><path class="cls-10" d="M197.23,137.62a3.3,3.3,0,0,0,.85-1.4,16.75,16.75,0,0,0,.59-2.33c.36-1.73.7-3.43.93-5.12a18.27,18.27,0,0,0-.9-9.78,19.86,19.86,0,0,0-2.64-4.33,46,46,0,0,0-3.51-3.92,15.35,15.35,0,0,1-3.27-4.36,6.45,6.45,0,0,1-.52-2.69,4.35,4.35,0,0,1,.82-2.54,4.25,4.25,0,0,0-.54,2.53,6.21,6.21,0,0,0,.76,2.45,14.17,14.17,0,0,0,3.53,3.77,50.65,50.65,0,0,1,4,3.63,21.91,21.91,0,0,1,3.39,4.44,17.18,17.18,0,0,1,1.91,5.42A28.29,28.29,0,0,1,203,129c0,1.86-.21,3.68-.39,5.47a21.79,21.79,0,0,1-.42,2.9,7.84,7.84,0,0,1-1.59,3.3Z"/><path class="cls-10" d="M129.71,101.67a1.51,1.51,0,0,0-1-.86,2.33,2.33,0,0,0-1.31,0,2.19,2.19,0,0,0-.57.29,3.89,3.89,0,0,0-.48.43,4.92,4.92,0,0,0-.72,1.11c-.2.4-.36.83-.53,1.27s-.33.89-.48,1.32a11.62,11.62,0,0,0-.62,2.61,5.53,5.53,0,0,0,0,1.22,3.41,3.41,0,0,0,.31,1,2.75,2.75,0,0,0,1.46,1.33,6.1,6.1,0,0,0,2.25.38,18.06,18.06,0,0,0,2.59-.21l5.63-.82,2.83-.41a30.38,30.38,0,0,1,3.06-.34,8.82,8.82,0,0,1,7.41,2.91,6.58,6.58,0,0,1,.7,1.07,5.71,5.71,0,0,1,.29.61c.08.21.16.46.23.69a6.38,6.38,0,0,1-1.08,5.48,5.73,5.73,0,0,1-2.8,2l-1.86-6.6a.82.82,0,0,0-.47.41c0,.11,0,.14,0,.13s.21.11.13-.19a1.85,1.85,0,0,0-.86-.83,2,2,0,0,0-.36-.17,4.53,4.53,0,0,0-.44-.15,7.07,7.07,0,0,0-1-.19,26.1,26.1,0,0,0-2.62-.1l-2.85,0-5.71,0a22,22,0,0,1-3.09-.22,8.68,8.68,0,0,1-3.2-1.11,5.14,5.14,0,0,1-2.23-2.83,5.52,5.52,0,0,1-.24-1.73,7.62,7.62,0,0,1,.24-1.61,13.57,13.57,0,0,1,1.13-2.79c.22-.44.46-.86.69-1.27s.48-.85.76-1.26a3.87,3.87,0,0,1,2.41-1.8,2.61,2.61,0,0,1,1.49.18A1.6,1.6,0,0,1,129.71,101.67Z"/><path class="cls-10" d="M139.64,209.88c-.68.78-1.32,1.59-1.93,2.44a28.76,28.76,0,0,0-1.69,2.6,5.16,5.16,0,0,0-.75,2.69,2.81,2.81,0,0,0,1.52,2.44,2.75,2.75,0,0,1-1.55-.68,4.15,4.15,0,0,1-1.08-1.46,6.82,6.82,0,0,1-.32-3.68,30.24,30.24,0,0,1,.77-3.38c.31-1.1.67-2.2,1.09-3.28Z"/><path class="cls-10" d="M119.59,201.31a23.47,23.47,0,0,1-.42,13s2.48-8.86,3.3-9.68S119.59,201.31,119.59,201.31Z"/><path class="cls-10" d="M224,142.26a1.45,1.45,0,0,0-1.14-.26,2.11,2.11,0,0,0-1,.51,2.08,2.08,0,0,0-.66,1.91,6,6,0,0,0,.72,2.11c.37.7.79,1.42,1.2,2.15a21.69,21.69,0,0,1,2.25,4.9,9.9,9.9,0,0,1,.38,3.08,9.46,9.46,0,0,1-.74,3.2,13.24,13.24,0,0,1-1.54,2.71,20.71,20.71,0,0,1-1.9,2.25,21.21,21.21,0,0,1-4.72,3.6c-.44.25-.89.48-1.35.7s-.93.42-1.33.59a9.36,9.36,0,0,0-1.79.9c-.17.14-.29.27-.29.33s0,.16,0,.19.13,0,.24-.14a1.34,1.34,0,0,0,.26-.75l-9.58.51a7.66,7.66,0,0,1,.68-3.2,8.41,8.41,0,0,1,1.55-2.26,9.16,9.16,0,0,1,1.86-1.48,10.1,10.1,0,0,1,1.89-.88,18.37,18.37,0,0,1,3-.7c.4-.06.73-.11,1-.18s.65-.13,1-.22a14.4,14.4,0,0,0,3.77-1.63,11.33,11.33,0,0,0,3-2.58,4.9,4.9,0,0,0,.81-1.53,5.69,5.69,0,0,0,.24-1.9,18.85,18.85,0,0,0-.91-4.57c-.23-.81-.47-1.62-.68-2.48a7.29,7.29,0,0,1-.23-2.77,3.65,3.65,0,0,1,.47-1.38,2.75,2.75,0,0,1,1.06-1,2.47,2.47,0,0,1,1.32-.31A1.6,1.6,0,0,1,224,142.26Z"/><path class="cls-10" d="M223.89,169.64a1,1,0,0,0-.65-.62,1.5,1.5,0,0,0-.86-.07,1.6,1.6,0,0,0-1.21,1,4.8,4.8,0,0,0-.36,1.68c0,.62-.05,1.26-.07,1.91a17.13,17.13,0,0,1-.46,4.15,7.71,7.71,0,0,1-1,2.18,7.13,7.13,0,0,1-1.76,1.83,10.47,10.47,0,0,1-2.1,1.18,17.71,17.71,0,0,1-2.16.73,16.57,16.57,0,0,1-4.57.5,11.5,11.5,0,0,1-1.17-.08c-.4,0-.78-.09-1.12-.14a6.68,6.68,0,0,0-1.54-.11.48.48,0,0,0-.33.1s-.09.09-.07.12.08.06.21,0a1.12,1.12,0,0,0,.48-.4l-6.56-3.48a5.85,5.85,0,0,1,1.74-1.85,6.41,6.41,0,0,1,1.92-.88,6.9,6.9,0,0,1,1.82-.24,8.29,8.29,0,0,1,1.61.17,14.33,14.33,0,0,1,2.23.72l.77.3c.24.09.48.17.73.24a11,11,0,0,0,3.15.43,9,9,0,0,0,3-.5,3.53,3.53,0,0,0,1.15-.69,4.17,4.17,0,0,0,.92-1.16,15,15,0,0,0,1.23-3.39c.17-.63.33-1.26.53-1.92a5.68,5.68,0,0,1,1-1.92,2.88,2.88,0,0,1,.86-.73,2,2,0,0,1,1.09-.22,1.85,1.85,0,0,1,1,.32A1.19,1.19,0,0,1,223.89,169.64Z"/><path class="cls-10" d="M176.6,96.21a3.57,3.57,0,0,1,1.92-2.58,4.15,4.15,0,0,1,3.45-.11,5.13,5.13,0,0,1,1.54,1,5.66,5.66,0,0,1,1.14,1.44,10,10,0,0,1,1,3.38c.16,1.12.24,2.2.4,3.18a14.1,14.1,0,0,0,3.77,7.57,13,13,0,0,0,2.09,1.77c.76.53,1.65,1,2.61,1.65a15.85,15.85,0,0,1,3,2.37,13.55,13.55,0,0,1,2.4,3.34,21.16,21.16,0,0,1,2.08,7.4,57,57,0,0,1,.26,6.94l-8.65-.81a50,50,0,0,0,.8-5.84,14.56,14.56,0,0,0-.46-5.08,7.66,7.66,0,0,0-1-2.07,10.27,10.27,0,0,0-1.74-1.92c-.74-.67-1.61-1.38-2.48-2.23a18.65,18.65,0,0,1-2.36-2.83,17.56,17.56,0,0,1-3.07-10.07c0-1.15.12-2.2.14-3.22a8.21,8.21,0,0,0-.34-2.84,4.44,4.44,0,0,0-.65-1.19,3.75,3.75,0,0,0-1-.91,3.34,3.34,0,0,0-2.76-.37A3.26,3.26,0,0,0,176.6,96.21Z"/><path class="cls-10" d="M154.7,224.55a2.37,2.37,0,0,0-1.29-1.21,2.74,2.74,0,0,0-.46-.15,2.59,2.59,0,0,0-.51-.05,4.39,4.39,0,0,0-1.36.23c-1,.3-2.26.91-3.71,1.38a16.32,16.32,0,0,1-4.35.78,16.14,16.14,0,0,1-4.29-.38,17.17,17.17,0,0,1-2-.61,10.83,10.83,0,0,1-1.94-.94,6.35,6.35,0,0,1-1.66-1.45,4.93,4.93,0,0,1-.91-2,9.65,9.65,0,0,1,.23-4,9.31,9.31,0,0,0,.53,3.79,4.15,4.15,0,0,0,2.54,2.24,11.13,11.13,0,0,0,3.56.6,13.53,13.53,0,0,0,3.55-.41,12.76,12.76,0,0,0,3.22-1.29c1-.55,2-1.35,3.35-2.1a9.77,9.77,0,0,1,2.38-.95,7.32,7.32,0,0,1,1.45-.23,8.22,8.22,0,0,1,1.49.05,8.5,8.5,0,0,1,5.29,2.8Z"/><path class="cls-10" d="M201.31,214.44a10.53,10.53,0,0,1-3,.19,24.9,24.9,0,0,1-6-1.13,27.14,27.14,0,0,1-2.82-1.08l-.35-.14a5.91,5.91,0,0,0,.23-1.11l-4.23-.29a11.76,11.76,0,0,0-2.7-.3,8.84,8.84,0,0,0-4.51,1.19l2.55,3.66c-1.17.57-2.46,1.11-3.75,1.86a9.91,9.91,0,0,0-3.61,3.34,8,8,0,0,0-1.05,4.77,7.14,7.14,0,0,0,10.16,5.94,6.68,6.68,0,0,1-7.41-2.34,6.1,6.1,0,0,1,.2-7.09,7.34,7.34,0,0,1,3-2.07c1.21-.51,2.57-.87,4-1.35a14.41,14.41,0,0,0,4.38-2.29l.21-.18c.58.07,1.17.16,1.79.25a30.36,30.36,0,0,0,3.35.38,27.24,27.24,0,0,0,6.65-.42,11.58,11.58,0,0,0,3.19-1,5.13,5.13,0,0,0,2.35-2.25A4.72,4.72,0,0,1,201.31,214.44Z"/><path class="cls-10" d="M118.49,114.51l.91,4.23a16.89,16.89,0,0,0,1.13,3.88,8.71,8.71,0,0,0,2.29,2.72,34.6,34.6,0,0,0,3.25,2.29L122,132a39.62,39.62,0,0,1-2.65-3.84,12.22,12.22,0,0,1-1.68-4.75,18.7,18.7,0,0,1,.25-4.57Z"/><path d="M266.21,213,172,158.77V46.88H153.71V158.54L57.32,213.41l9,15.88,96.28-54.8,94.44,54.36Z"/><path class="cls-10" d="M121.81,106.93c.08,1.41-.2,2.85-.11,4.17a4.22,4.22,0,0,0,.15.91l.07.19.1.22.21.44a6.66,6.66,0,0,0,1.08,1.51,4.59,4.59,0,0,0,1.36,1c.5.24,1.1.44,1.81.73a8.72,8.72,0,0,1,2.24,1.29,9.25,9.25,0,0,1,1.86,2l-4.06,2.11a4.49,4.49,0,0,0-.61-1.32A5.07,5.07,0,0,0,124.8,119c-.5-.4-1.14-.83-1.77-1.41a7.26,7.26,0,0,1-1.52-2,8.69,8.69,0,0,1-.77-2.23c0-.19-.07-.37-.1-.56l0-.29,0-.32a5,5,0,0,1,.09-1.17C120.94,109.56,121.55,108.32,121.81,106.93Z"/></svg>